{
    "asset" : {
        "copyright" : "Jenix 04.05.2020",
        "generator" : "Khronos glTF Blender I/O v1.1.45",
        "version" : "2.0"
    },
    "scene" : 0,
    "scenes" : [
        {
            "name" : "Scene",
            "nodes" : [
                0
            ]
        }
    ],
    "nodes" : [
        {
            "mesh" : 0,
            "name" : "CubeMP",
            "scale" : [
                1.002662181854248,
                1.002662181854248,
                1.002662181854248
            ]
        }
    ],
    "materials" : [
        {
            "doubleSided" : true,
            "emissiveFactor" : [
                0,
                0,
                0
            ],
            "name" : "Material",
            "normalTexture" : {
                "index" : 0,
                "texCoord" : 0
            },
            "pbrMetallicRoughness" : {
                "baseColorTexture" : {
                    "index" : 1,
                    "texCoord" : 0
                },
                "metallicFactor" : 0,
                "metallicRoughnessTexture" : {
                    "index" : 2,
                    "texCoord" : 0
                }
            }
        }
    ],
    "meshes" : [
        {
            "name" : "Cube",
            "primitives" : [
                {
                    "attributes" : {
                        "POSITION" : 0,
                        "NORMAL" : 1,
                        "TANGENT" : 2,
                        "TEXCOORD_0" : 3
                    },
                    "indices" : 4,
                    "material" : 0
                }
            ]
        }
    ],
    "textures" : [
        {
            "source" : 0
        },
        {
            "source" : 1
        },
        {
            "source" : 2
        }
    ],
    "images" : [
        {
            "bufferView" : 5,
            "mimeType" : "image/png",
            "name" : "_test_crate_three_js-mat_nrm"
        },
        {
            "bufferView" : 6,
            "mimeType" : "image/png",
            "name" : "_test_crate_three_js-mat_diff"
        },
        {
            "bufferView" : 7,
            "mimeType" : "image/png",
            "name" : "_test_crate_three_js-mat_gloss"
        }
    ],
    "accessors" : [
        {
            "bufferView" : 0,
            "componentType" : 5126,
            "count" : 864,
            "max" : [
                0.5248389840126038,
                0.5248389840126038,
                0.5248389840126038
            ],
            "min" : [
                -0.5248389840126038,
                -0.5248389840126038,
                -0.5248389840126038
            ],
            "type" : "VEC3"
        },
        {
            "bufferView" : 1,
            "componentType" : 5126,
            "count" : 864,
            "type" : "VEC3"
        },
        {
            "bufferView" : 2,
            "componentType" : 5126,
            "count" : 864,
            "type" : "VEC4"
        },
        {
            "bufferView" : 3,
            "componentType" : 5126,
            "count" : 864,
            "type" : "VEC2"
        },
        {
            "bufferView" : 4,
            "componentType" : 5123,
            "count" : 1284,
            "type" : "SCALAR"
        }
    ],
    "bufferViews" : [
        {
            "buffer" : 0,
            "byteLength" : 10368,
            "byteOffset" : 0
        },
        {
            "buffer" : 0,
            "byteLength" : 10368,
            "byteOffset" : 10368
        },
        {
            "buffer" : 0,
            "byteLength" : 13824,
            "byteOffset" : 20736
        },
        {
            "buffer" : 0,
            "byteLength" : 6912,
            "byteOffset" : 34560
        },
        {
            "buffer" : 0,
            "byteLength" : 2568,
            "byteOffset" : 41472
        },
        {
            "buffer" : 0,
            "byteLength" : 730015,
            "byteOffset" : 44040
        },
        {
            "buffer" : 0,
            "byteLength" : 1094312,
            "byteOffset" : 774056
        },
        {
            "buffer" : 0,
            "byteLength" : 861683,
            "byteOffset" : 1868368
        }
    ],
    "buffers" : [
        {
            "byteLength" : 2730052,
            "uri" : "data:application/octet-stream;base64,"
        }
    ]
}
